<svg width="28" height="18" viewBox="0 0 28 18" fill="none" xmlns="http://www.w3.org/2000/svg">
<path d="M2.40906 18H26.4091C27.2341 18 27.9091 17.325 27.9091 16.5C27.9091 15.675 27.2341 15 26.4091 15H2.40906C1.58406 15 0.909058 15.675 0.909058 16.5C0.909058 17.325 1.58406 18 2.40906 18ZM2.40906 10.5H26.4091C27.2341 10.5 27.9091 9.825 27.9091 9C27.9091 8.175 27.2341 7.5 26.4091 7.5H2.40906C1.58406 7.5 0.909058 8.175 0.909058 9C0.909058 9.825 1.58406 10.5 2.40906 10.5ZM0.909058 1.5C0.909058 2.325 1.58406 3 2.40906 3H26.4091C27.2341 3 27.9091 2.325 27.9091 1.5C27.9091 0.675 27.2341 0 26.4091 0H2.40906C1.58406 0 0.909058 0.675 0.909058 1.5Z" fill="#FF6600"/>
</svg>
